<svg width="15" height="9" viewBox="0 0 15 9" fill="none" xmlns="http://www.w3.org/2000/svg">
<path d="M14.1791 7.11672L7.93027 0.865574C7.87224 0.807453 7.80331 0.761341 7.72745 0.729874C7.65158 0.698408 7.57025 0.682205 7.48812 0.682189C7.40598 0.682174 7.32465 0.698348 7.24877 0.729786C7.17289 0.761225 7.10395 0.807312 7.04589 0.865411L0.794746 7.11426C0.677449 7.23151 0.611535 7.39056 0.611504 7.55642C0.611474 7.72227 0.677329 7.88134 0.794583 7.99864C0.911837 8.11593 1.07088 8.18185 1.23674 8.18188C1.40259 8.18191 1.56166 8.11605 1.67896 7.9988L7.48784 2.19127L13.2946 8.00094C13.3526 8.05902 13.4216 8.10509 13.4974 8.13653C13.5733 8.16797 13.6546 8.18416 13.7367 8.18418C13.8189 8.18419 13.9002 8.16803 13.9761 8.13662C14.0519 8.10521 14.1209 8.05916 14.179 8.0011C14.237 7.94304 14.2831 7.87411 14.3146 7.79825C14.346 7.72238 14.3622 7.64107 14.3622 7.55895C14.3622 7.47682 14.3461 7.3955 14.3146 7.31963C14.2832 7.24375 14.2372 7.1748 14.1791 7.11672Z" fill="#329993"/>
</svg>
