<svg width="17" height="20" viewBox="0 0 17 20" fill="none" xmlns="http://www.w3.org/2000/svg">
<path d="M16.5306 5.77891L11.2806 0.528915C11.2109 0.459289 11.1282 0.404079 11.0371 0.366438C10.9461 0.328797 10.8485 0.309463 10.75 0.30954H1.75C1.35218 0.30954 0.970644 0.467575 0.68934 0.74888C0.408035 1.03018 0.25 1.41172 0.25 1.80954V18.3095C0.25 18.7074 0.408035 19.0889 0.68934 19.3702C0.970644 19.6515 1.35218 19.8095 1.75 19.8095H15.25C15.6478 19.8095 16.0294 19.6515 16.3107 19.3702C16.592 19.0889 16.75 18.7074 16.75 18.3095V6.30954C16.7501 6.21102 16.7307 6.11345 16.6931 6.0224C16.6555 5.93136 16.6003 5.84862 16.5306 5.77891ZM11.5 2.86985L14.1897 5.55954H11.5V2.86985ZM15.25 18.3095H1.75V1.80954H10V6.30954C10 6.50845 10.079 6.69922 10.2197 6.83987C10.3603 6.98052 10.5511 7.05954 10.75 7.05954H15.25V18.3095ZM12.25 10.8095C12.25 11.0085 12.171 11.1992 12.0303 11.3399C11.8897 11.4805 11.6989 11.5595 11.5 11.5595H5.5C5.30109 11.5595 5.11032 11.4805 4.96967 11.3399C4.82902 11.1992 4.75 11.0085 4.75 10.8095C4.75 10.6106 4.82902 10.4199 4.96967 10.2792C5.11032 10.1386 5.30109 10.0595 5.5 10.0595H11.5C11.6989 10.0595 11.8897 10.1386 12.0303 10.2792C12.171 10.4199 12.25 10.6106 12.25 10.8095ZM12.25 13.8095C12.25 14.0085 12.171 14.1992 12.0303 14.3399C11.8897 14.4805 11.6989 14.5595 11.5 14.5595H5.5C5.30109 14.5595 5.11032 14.4805 4.96967 14.3399C4.82902 14.1992 4.75 14.0085 4.75 13.8095C4.75 13.6106 4.82902 13.4199 4.96967 13.2792C5.11032 13.1386 5.30109 13.0595 5.5 13.0595H11.5C11.6989 13.0595 11.8897 13.1386 12.0303 13.2792C12.171 13.4199 12.25 13.6106 12.25 13.8095Z" fill="#5D6F6D"/>
</svg>
