<svg width="18" height="18" viewBox="0 0 18 18" fill="none" xmlns="http://www.w3.org/2000/svg">
<path d="M10.5 17.25C10.5 17.4489 10.579 17.6397 10.7197 17.7803C10.8603 17.921 11.0511 18 11.25 18H16.5C16.8978 18 17.2794 17.842 17.5607 17.5607C17.842 17.2794 18 16.8978 18 16.5V1.5C18 1.10218 17.842 0.720644 17.5607 0.43934C17.2794 0.158035 16.8978 0 16.5 0H11.25C11.0511 0 10.8603 0.0790178 10.7197 0.21967C10.579 0.360322 10.5 0.551088 10.5 0.75C10.5 0.948912 10.579 1.13968 10.7197 1.28033C10.8603 1.42098 11.0511 1.5 11.25 1.5H16.5V16.5H11.25C11.0511 16.5 10.8603 16.579 10.7197 16.7197C10.579 16.8603 10.5 17.0511 10.5 17.25ZM0.219376 8.46937L3.96937 4.71937C4.11011 4.57864 4.30098 4.49958 4.5 4.49958C4.69902 4.49958 4.88989 4.57864 5.03063 4.71937C5.17136 4.86011 5.25042 5.05098 5.25042 5.25C5.25042 5.44902 5.17136 5.63989 5.03063 5.78063L2.56031 8.25H11.25C11.4489 8.25 11.6397 8.32902 11.7803 8.46967C11.921 8.61032 12 8.80109 12 9C12 9.19891 11.921 9.38968 11.7803 9.53033C11.6397 9.67098 11.4489 9.75 11.25 9.75H2.56031L5.03063 12.2194C5.17136 12.3601 5.25042 12.551 5.25042 12.75C5.25042 12.949 5.17136 13.1399 5.03063 13.2806C4.88989 13.4214 4.69902 13.5004 4.5 13.5004C4.30098 13.5004 4.11011 13.4214 3.96937 13.2806L0.219376 9.53063C0.149643 9.46097 0.0943222 9.37825 0.0565796 9.2872C0.018837 9.19616 -0.000589371 9.09856 -0.000589371 9C-0.000589371 8.90144 0.018837 8.80384 0.0565796 8.7128C0.0943222 8.62175 0.149643 8.53903 0.219376 8.46937Z" fill="#758A88"/>
</svg>
