<svg width="24" height="11" viewBox="0 0 24 11" fill="none" xmlns="http://www.w3.org/2000/svg">
<path d="M14.0259 2.03536L5.62593 10.2854C5.48565 10.4233 5.29676 10.5007 5.09999 10.5007C4.90322 10.5007 4.71433 10.4233 4.57405 10.2854L0.974052 6.75005C0.903816 6.68098 0.847871 6.59876 0.809411 6.50807C0.770952 6.41738 0.750731 6.32001 0.749904 6.22151C0.749077 6.123 0.76766 6.0253 0.804591 5.93398C0.841522 5.84266 0.896079 5.75951 0.965146 5.68927C1.03421 5.61903 1.11644 5.56309 1.20713 5.52463C1.29781 5.48617 1.39519 5.46595 1.49369 5.46512C1.59219 5.4643 1.6899 5.48288 1.78122 5.51981C1.87254 5.55674 1.95569 5.6113 2.02593 5.68036L5.09999 8.69911L12.975 0.964739C13.117 0.825252 13.3085 0.747877 13.5076 0.749635C13.6061 0.750505 13.7035 0.770777 13.7942 0.809293C13.8849 0.84781 13.9672 0.903816 14.0362 0.974114C14.1053 1.04441 14.1599 1.12763 14.1968 1.219C14.2337 1.31038 14.2522 1.40813 14.2513 1.50668C14.2505 1.60523 14.2302 1.70264 14.1917 1.79335C14.1532 1.88406 14.0972 1.9663 14.0269 2.03536H14.0259ZM23.0353 0.974114C22.9663 0.903763 22.884 0.84771 22.7933 0.80916C22.7026 0.770611 22.6052 0.75032 22.5066 0.749449C22.4081 0.748579 22.3103 0.767145 22.2189 0.804086C22.1275 0.841027 22.0443 0.895619 21.9741 0.964739L14.0991 8.69911L12.3337 6.96474C12.1918 6.82538 12.0002 6.74812 11.8013 6.74997C11.6024 6.75181 11.4123 6.83261 11.273 6.97458C11.1336 7.11656 11.0563 7.30808 11.0582 7.50701C11.06 7.70595 11.1408 7.896 11.2828 8.03537L13.5731 10.2854C13.7134 10.4233 13.9023 10.5007 14.0991 10.5007C14.2958 10.5007 14.4847 10.4233 14.625 10.2854L23.025 2.03536C23.0954 1.96639 23.1515 1.88421 23.1902 1.79353C23.2288 1.70285 23.2492 1.60544 23.2501 1.50688C23.2511 1.40831 23.2326 1.31053 23.1957 1.21911C23.1589 1.1277 23.1044 1.04444 23.0353 0.974114Z" fill="#329993"/>
</svg>
